<?xml version="1.0" encoding="utf-8"?>
<!-- Generator: Adobe Illustrator 16.0.0, SVG Export Plug-In . SVG Version: 6.00 Build 0)  -->
<!DOCTYPE svg PUBLIC "-//W3C//DTD SVG 1.1//EN" "http://www.w3.org/Graphics/SVG/1.1/DTD/svg11.dtd">
<svg version="1.1" id="Layer_1" xmlns="http://www.w3.org/2000/svg" xmlns:xlink="http://www.w3.org/1999/xlink" x="0px" y="0px"
	 width="72px" height="72px" viewBox="0 0 72 72" enable-background="new 0 0 72 72" xml:space="preserve">
<g>
	<path fill-rule="evenodd" clip-rule="evenodd" d="M21.123,30.231h4.658c2.05,0,3.727,1.677,3.727,3.727v4.659h-4.658
		c-2.05,0-3.727-1.677-3.727-3.727V30.231z"/>
	<path fill-rule="evenodd" clip-rule="evenodd" d="M46.215,30.231h4.658v4.658c0,2.05-1.678,3.727-3.727,3.727h-4.659v-4.659
		C42.487,31.908,44.165,30.231,46.215,30.231z"/>
	<path fill-rule="evenodd" clip-rule="evenodd" d="M36,11.131c-12.864,0-23.292,10.429-23.292,23.292
		c0,0.789,0.039,1.568,0.115,2.336C13.987,48.51,23.848,57.664,36,57.717v9.665l16.137-16.161c4.41-4.238,7.155-10.197,7.155-16.797
		C59.292,21.56,48.864,11.131,36,11.131L36,11.131z M38.209,31.754c1.134-3.603,4.5-6.215,8.477-6.215
		c2.318,0,4.667,0.941,6.282,2.603c1.572,1.614,2.484,3.607,2.593,5.835l0.01,0.447h-0.005c0,5.45-2.259,10.352-5.825,13.927
		c-3.337,3.345-6.681,6.685-10.014,10.033v-4.751C27.431,55.998,16.125,46.38,16.44,33.995c0-0.006,0-0.012,0-0.018
		c0.063-2.271,1.196-4.56,2.868-6.1c1.635-1.507,3.785-2.338,6.007-2.338c3.977,0,7.343,2.612,8.477,6.215
		c0.336,0.893,1.198,1.528,2.208,1.528S37.872,32.647,38.209,31.754z"/>
	<path fill-rule="evenodd" clip-rule="evenodd" d="M15.037,15.79h41.926l0,0c0,3.218-2.633,5.851-5.851,5.851H20.888
		C17.67,21.641,15.037,19.008,15.037,15.79L15.037,15.79z"/>
	<polygon fill-rule="evenodd" clip-rule="evenodd" points="39.727,42.024 36,39.094 32.273,42.024 36,48.182 	"/>
</g>
</svg>
